<svg width="186" height="180" viewBox="0 0 186 180" fill="none" xmlns="http://www.w3.org/2000/svg">
<circle cx="97" cy="90" r="70" fill="#8A5BD5"/>
<circle cx="20" cy="10" r="10" fill="#8A5BD5"/>
<circle cx="106.5" cy="4.5" r="2.5" fill="#8A5BD5"/>
<circle cx="10" cy="133" r="5" fill="#8A5BD5"/>
<circle cx="178.5" cy="27.5" r="7.5" fill="#8A5BD5"/>
<circle cx="165.5" cy="160.5" r="2.5" fill="#8A5BD5"/>
<circle cx="170.5" cy="110.5" r="2.5" fill="#8A5BD5"/>
<circle cx="122" cy="171" r="1" fill="#8A5BD5"/>
<circle cx="62.5" cy="176.5" r="3.5" fill="#8A5BD5"/>
<circle cx="1" cy="75" r="1" fill="#8A5BD5"/>
<path d="M110.02 60C120.19 60 127 67.14 127 77.76V102.273C127 112.86 120.19 120 110.02 120H84.01C73.84 120 67 112.86 67 102.273V77.76C67 67.14 73.84 60 84.01 60H110.02ZM109.54 81C108.52 79.98 106.84 79.98 105.82 81L93.43 93.39L88.18 88.14C87.16 87.12 85.48 87.12 84.46 88.14C83.44 89.16 83.44 90.81 84.46 91.86L91.6 98.97C92.11 99.48 92.77 99.72 93.43 99.72C94.12 99.72 94.78 99.48 95.29 98.97L109.54 84.72C110.56 83.7 110.56 82.05 109.54 81Z" fill="white"/>
</svg>
